<svg xmlns="http://www.w3.org/2000/svg" width="30" height="30" viewBox="0 0 30 30" fill="none">
  <rect x="5.99951" y="15" width="18" height="11" rx="2" fill="#88C7CF"/>
  <rect x="4" y="9.00031" width="22" height="6" rx="1" fill="#00838F"/>
  <path d="M15 8.75H10.5804C9.92916 8.75 9.30463 8.48661 8.84416 8.01777C8.38369 7.54893 8.125 6.91304 8.125 6.25C8.125 5.58696 8.38369 4.95107 8.84416 4.48223C9.30463 4.01339 9.92916 3.75 10.5804 3.75C14.0179 3.75 15 8.75 15 8.75ZM15 8.75H19.4196C20.0708 8.75 20.6954 8.48661 21.1558 8.01777C21.6163 7.54893 21.875 6.91304 21.875 6.25C21.875 5.58696 21.6163 4.95107 21.1558 4.48223C20.6954 4.01339 20.0708 3.75 19.4196 3.75C15.9821 3.75 15 8.75 15 8.75ZM6.25 15H23.75V22.25C23.75 23.6501 23.75 24.3502 23.4775 24.885C23.2378 25.3554 22.8554 25.7378 22.385 25.9775C21.8502 26.25 21.1501 26.25 19.75 26.25H10.25C8.84987 26.25 8.1498 26.25 7.61502 25.9775C7.14462 25.7378 6.76217 25.3554 6.52248 24.885C6.25 24.3502 6.25 23.6501 6.25 22.25V15ZM5.75 15H24.25C24.9501 15 25.3001 15 25.5675 14.8638C25.8027 14.7439 25.9939 14.5527 26.1138 14.3175C26.25 14.0501 26.25 13.7001 26.25 13V10.75C26.25 10.0499 26.25 9.6999 26.1138 9.43251C25.9939 9.19731 25.8027 9.00608 25.5675 8.88624C25.3001 8.75 24.9501 8.75 24.25 8.75H5.75C5.04993 8.75 4.6999 8.75 4.43251 8.88624C4.19731 9.00608 4.00608 9.19731 3.88624 9.43251C3.75 9.6999 3.75 10.0499 3.75 10.75V13C3.75 13.7001 3.75 14.0501 3.88624 14.3175C4.00608 14.5527 4.19731 14.7439 4.43251 14.8638C4.6999 15 5.04993 15 5.75 15Z" stroke="#00838F" stroke-width="2" stroke-linecap="round" stroke-linejoin="round"/>
  <path d="M15 16.0007V25.0007" stroke="#00838F" stroke-width="2" stroke-linecap="round"/>
</svg>