<svg xmlns="http://www.w3.org/2000/svg" width="26" height="26" viewBox="0 0 26 26" fill="none">
  <path opacity="0.4" d="M0.500488 11.8481C0.562988 14.7706 0.737988 19.7693 0.762988 20.3206C0.851738 21.4993 1.30299 22.6906 2.00549 23.5306C2.98299 24.7093 4.18674 25.2356 5.86549 25.2356C8.18549 25.2481 10.743 25.2481 13.2267 25.2481C15.7205 25.2481 18.1405 25.2481 20.1842 25.2356C21.8392 25.2356 23.0805 24.6956 24.0455 23.5306C24.748 22.6906 25.1992 21.4868 25.263 20.3206C25.288 19.8568 25.413 14.4306 25.488 11.8481H0.500488Z" fill="#00838F"/>
  <path d="M12.0571 17.2302V18.8477C12.0571 19.3652 12.4771 19.7852 12.9946 19.7852C13.5121 19.7852 13.9321 19.3652 13.9321 18.8477V17.2302C13.9321 16.7127 13.5121 16.2927 12.9946 16.2927C12.4771 16.2927 12.0571 16.7127 12.0571 17.2302Z" fill="#00838F"/>
  <path fill-rule="evenodd" clip-rule="evenodd" d="M10.7642 16.1955C10.6392 16.6492 10.203 16.9392 9.73049 16.8767C6.54174 16.4317 3.49424 15.3005 0.921738 13.6017C0.657988 13.4292 0.500488 13.1342 0.500488 12.8192V8.48674C0.500488 5.86174 2.64049 3.72674 5.27174 3.72674H7.73049C7.96549 1.91174 9.50299 0.500488 11.3805 0.500488H14.608C16.4842 0.500488 18.023 1.91174 18.258 3.72674H20.7292C23.353 3.72674 25.488 5.86174 25.488 8.48674V12.8192C25.488 13.1342 25.3292 13.428 25.068 13.6017C22.4905 15.308 19.4305 16.4442 16.2205 16.888C16.1767 16.8942 16.1342 16.8967 16.0917 16.8967C15.668 16.8967 15.2892 16.6105 15.183 16.1905C14.9305 15.1955 14.0267 14.4992 12.988 14.4992C11.9355 14.4992 11.0417 15.1805 10.7642 16.1955ZM14.608 2.37549H11.3805C10.5392 2.37549 9.83674 2.95049 9.62674 3.72674H16.3605C16.1505 2.95049 15.448 2.37549 14.608 2.37549Z" fill="#00838F"/>
</svg>