<svg xmlns="http://www.w3.org/2000/svg" width="30" height="30" viewBox="0 0 30 30" fill="none">
  <circle cx="15" cy="15" r="9" fill="#88C7CF"/>
  <path fill-rule="evenodd" clip-rule="evenodd" d="M18.7803 2.91817C16.8823 0.415054 13.1193 0.415054 11.2213 2.91817C10.7315 3.56408 9.93138 3.89551 9.12833 3.7851C6.01628 3.35721 3.35544 6.01805 3.78333 9.1301C3.89374 9.93315 3.56231 10.7333 2.9164 11.2231C0.413284 13.121 0.413284 16.884 2.9164 18.782C3.56231 19.2718 3.89374 20.0719 3.78333 20.875C3.35544 23.987 6.01628 26.6479 9.12833 26.22C9.93138 26.1096 10.7315 26.441 11.2213 27.0869C13.1193 29.59 16.8823 29.59 18.7803 27.0869C19.27 26.441 20.0702 26.1096 20.8732 26.22C23.9853 26.6479 26.6461 23.987 26.2182 20.875C26.1078 20.0719 26.4392 19.2718 27.0851 18.782C29.5883 16.884 29.5883 13.121 27.0851 11.2231C26.4392 10.7333 26.1078 9.93315 26.2182 9.1301C26.6461 6.01805 23.9853 3.35721 20.8732 3.7851C20.0702 3.89551 19.27 3.56408 18.7803 2.91817ZM13.7503 6.25105V8.75105H13.4296C11.5356 8.75105 10.0003 10.2864 10.0003 12.1803C10.0003 13.6564 10.9448 14.9668 12.3451 15.4336L16.8649 16.9402C17.2444 17.0667 17.5003 17.4218 17.5003 17.8218C17.5003 18.335 17.0843 18.7511 16.571 18.7511H13.7503C13.06 18.7511 12.5003 18.1914 12.5003 17.5011H10.0003C10.0003 19.5721 11.6792 21.2511 13.7503 21.2511V23.7511H16.2503V21.2511H16.571C18.465 21.2511 20.0003 19.7157 20.0003 17.8218C20.0003 16.3457 19.0558 15.0353 17.6555 14.5685L13.1357 13.0619C12.7563 12.9354 12.5003 12.5803 12.5003 12.1803C12.5003 11.6671 12.9164 11.2511 13.4296 11.2511H16.2503C16.9407 11.2511 17.5003 11.8107 17.5003 12.5011H20.0003C20.0003 10.43 18.3214 8.75105 16.2503 8.75105V6.25105H13.7503Z" fill="#00838F"/>
</svg>